<svg width="304" height="45" viewBox="0 0 304 45" fill="none" xmlns="http://www.w3.org/2000/svg">
<path d="M270.711 21.8422C270.711 22.0155 270.852 22.156 271.025 22.156H271.331C271.978 22.156 272.475 22.0221 272.82 21.7543C273.166 21.4865 273.339 21.1015 273.339 20.5994C273.339 20.0972 273.166 19.7123 272.82 19.4445C272.475 19.1767 271.978 19.0428 271.331 19.0428H271.025C270.852 19.0428 270.711 19.1833 270.711 19.3566V21.8422ZM277.538 28.6308C277.697 28.8372 277.549 29.1356 277.289 29.1356H274.012C273.906 29.1356 273.807 29.0815 273.749 28.9919L271.289 25.1774C271.119 24.9143 270.711 25.0345 270.711 25.3475V28.8218C270.711 28.9951 270.571 29.1356 270.398 29.1356H267.745C267.571 29.1356 267.431 28.9951 267.431 28.8218V16.8292C267.431 16.6559 267.571 16.5154 267.745 16.5154H272.536C273.239 16.5154 273.853 16.6214 274.377 16.8334C274.902 17.0342 275.331 17.3132 275.666 17.6703C276.012 18.0274 276.268 18.4402 276.436 18.9089C276.614 19.3775 276.704 19.8797 276.704 20.4153C276.704 21.3749 276.469 22.156 276.001 22.7585C275.626 23.2433 275.101 23.6006 274.426 23.8305C274.21 23.9039 274.116 24.1684 274.254 24.3492L277.538 28.6308Z" fill="currentColor"/>
<path d="M265.066 18.98C265.066 19.1533 264.925 19.2938 264.752 19.2938H261.48C261.307 19.2938 261.166 19.4343 261.166 19.6077V21.089C261.166 21.2623 261.307 21.4028 261.48 21.4028H264.535C264.708 21.4028 264.848 21.5433 264.848 21.7166V23.8674C264.848 24.0407 264.708 24.1813 264.535 24.1813H261.48C261.307 24.1813 261.166 24.3218 261.166 24.4951V26.0433C261.166 26.2166 261.307 26.3572 261.48 26.3572H264.752C264.925 26.3572 265.066 26.4977 265.066 26.671V28.8218C265.066 28.9951 264.925 29.1356 264.752 29.1356H258.199C258.026 29.1356 257.885 28.9951 257.885 28.8218V16.8292C257.885 16.6559 258.026 16.5154 258.199 16.5154H264.752C264.925 16.5154 265.066 16.6559 265.066 16.8292V18.98Z" fill="currentColor"/>
<path d="M254.045 19.2938C253.871 19.2938 253.731 19.4343 253.731 19.6077V28.8218C253.731 28.9951 253.59 29.1356 253.417 29.1356H250.764C250.591 29.1356 250.45 28.9951 250.45 28.8218V19.6077C250.45 19.4343 250.31 19.2938 250.137 19.2938H248.069C247.896 19.2938 247.756 19.1533 247.756 18.98V16.8292C247.756 16.6559 247.896 16.5154 248.069 16.5154H256.112C256.285 16.5154 256.426 16.6559 256.426 16.8292V18.98C256.426 19.1533 256.285 19.2938 256.112 19.2938H254.045Z" fill="currentColor"/>
<path d="M234.008 29.1356C233.834 29.1356 233.694 28.9951 233.694 28.8218V16.8292C233.694 16.6559 233.834 16.5154 234.008 16.5154H236.822C236.918 16.5154 237.009 16.5596 237.069 16.6354L242.473 23.5175C242.657 23.7519 243.033 23.6217 243.033 23.3237V16.8292C243.033 16.6559 243.174 16.5154 243.347 16.5154H245.983C246.157 16.5154 246.297 16.6559 246.297 16.8292V28.8218C246.297 28.9951 246.157 29.1356 245.983 29.1356H243.186C243.09 29.1356 242.999 29.0914 242.939 29.0156L237.535 22.1335C237.351 21.8991 236.974 22.0293 236.974 22.3273V28.8218C236.974 28.9951 236.834 29.1356 236.661 29.1356H234.008Z" fill="currentColor"/>
<path d="M231.329 18.98C231.329 19.1533 231.188 19.2938 231.015 19.2938H227.743C227.569 19.2938 227.429 19.4343 227.429 19.6077V21.089C227.429 21.2623 227.569 21.4028 227.743 21.4028H230.797C230.971 21.4028 231.111 21.5433 231.111 21.7166V23.8674C231.111 24.0407 230.971 24.1813 230.797 24.1813H227.743C227.569 24.1813 227.429 24.3218 227.429 24.4951V26.0433C227.429 26.2166 227.569 26.3572 227.743 26.3572H231.015C231.188 26.3572 231.329 26.4977 231.329 26.671V28.8218C231.329 28.9951 231.188 29.1356 231.015 29.1356H224.462C224.289 29.1356 224.148 28.9951 224.148 28.8218V16.8292C224.148 16.6559 224.289 16.5154 224.462 16.5154H231.015C231.188 16.5154 231.329 16.6559 231.329 16.8292V18.98Z" fill="currentColor"/>
<path d="M222.073 19.8548C222.073 20.1497 221.683 20.2975 221.454 20.112C220.822 19.5999 220.091 19.3439 219.261 19.3439C218.77 19.3439 218.313 19.4331 217.889 19.6117C217.476 19.7902 217.119 20.0357 216.817 20.3481C216.516 20.6494 216.276 21.0121 216.098 21.4361C215.93 21.8601 215.847 22.3176 215.847 22.8086C215.847 23.3107 215.93 23.7738 216.098 24.1978C216.276 24.6218 216.516 24.99 216.817 25.3025C217.13 25.6149 217.492 25.8604 217.905 26.0389C218.318 26.2175 218.764 26.3067 219.244 26.3067C220.056 26.3067 220.804 26.0393 221.489 25.5045C221.714 25.3294 222.073 25.4768 222.073 25.7613V28.6282C222.073 28.7616 221.989 28.8804 221.863 28.9244L221.738 28.968C221.236 29.1466 220.767 29.2749 220.332 29.353C219.897 29.4423 219.467 29.4869 219.043 29.4869C218.173 29.4869 217.336 29.3251 216.533 29.0015C215.741 28.6668 215.038 28.2037 214.424 27.6123C213.821 27.0097 213.336 26.3012 212.968 25.4866C212.599 24.6609 212.415 23.7626 212.415 22.7918C212.415 21.821 212.594 20.9339 212.951 20.1305C213.319 19.316 213.805 18.6186 214.407 18.0383C215.021 17.4469 215.729 16.9894 216.533 16.6658C217.336 16.3311 218.179 16.1637 219.06 16.1637C219.562 16.1637 220.053 16.2195 220.533 16.3311C220.964 16.4193 221.413 16.5549 221.879 16.738C221.997 16.7843 222.073 16.899 222.073 17.0257V19.8548Z" fill="currentColor"/>
<path d="M204.418 19.3998C204.327 19.5778 204.096 19.6259 203.931 19.5129C203.678 19.3391 203.424 19.2046 203.17 19.1095C202.813 18.9645 202.467 18.8919 202.133 18.8919C201.709 18.8919 201.363 18.9924 201.095 19.1932C200.827 19.3941 200.693 19.6563 200.693 19.9799C200.693 20.2031 200.76 20.3872 200.894 20.5322C201.028 20.6773 201.201 20.8056 201.413 20.9172C201.636 21.0176 201.882 21.1069 202.149 21.185C202.428 21.2631 202.702 21.3468 202.97 21.4361C204.041 21.7931 204.822 22.273 205.313 22.8755C205.815 23.4669 206.066 24.2424 206.066 25.2021C206.066 25.8492 205.954 26.4351 205.731 26.9595C205.519 27.484 205.201 27.9359 204.777 28.3153C204.364 28.6835 203.851 28.968 203.237 29.1689C202.635 29.3809 201.949 29.4869 201.179 29.4869C199.673 29.4869 198.271 29.0645 196.974 28.2198C196.841 28.1331 196.799 27.9587 196.874 27.8185L197.962 25.7715C198.057 25.5922 198.295 25.5497 198.454 25.6762C198.841 25.9843 199.225 26.2224 199.605 26.3904C200.085 26.6024 200.559 26.7085 201.028 26.7085C201.564 26.7085 201.96 26.5857 202.216 26.3402C202.484 26.0947 202.618 25.8158 202.618 25.5033C202.618 25.3136 202.585 25.1518 202.518 25.0179C202.451 24.8729 202.339 24.7446 202.183 24.633C202.027 24.5102 201.82 24.3986 201.564 24.2982C201.318 24.1978 201.017 24.0862 200.66 23.9635C200.236 23.8296 199.817 23.6845 199.404 23.5283C199.003 23.3609 198.64 23.1433 198.317 22.8755C198.004 22.6077 197.747 22.273 197.547 21.8713C197.357 21.4584 197.262 20.9395 197.262 20.3146C197.262 19.6898 197.362 19.1263 197.563 18.6241C197.775 18.1108 198.065 17.6757 198.434 17.3186C198.813 16.9504 199.271 16.6658 199.806 16.465C200.353 16.2641 200.961 16.1637 201.631 16.1637C202.255 16.1637 202.908 16.253 203.589 16.4315C204.171 16.5746 204.732 16.7789 205.274 17.0443C205.427 17.1196 205.485 17.3065 205.408 17.4587L204.418 19.3998Z" fill="currentColor"/>
<path d="M193.597 19.3998C193.507 19.5778 193.275 19.6259 193.111 19.5129C192.857 19.3391 192.603 19.2046 192.35 19.1095C191.993 18.9645 191.647 18.8919 191.312 18.8919C190.888 18.8919 190.542 18.9924 190.274 19.1932C190.007 19.3941 189.873 19.6563 189.873 19.9799C189.873 20.2031 189.94 20.3872 190.074 20.5322C190.207 20.6773 190.38 20.8056 190.592 20.9172C190.816 21.0176 191.061 21.1069 191.329 21.185C191.608 21.2631 191.881 21.3468 192.149 21.4361C193.22 21.7931 194.001 22.273 194.492 22.8755C194.994 23.4669 195.246 24.2424 195.246 25.2021C195.246 25.8492 195.134 26.4351 194.911 26.9595C194.699 27.484 194.381 27.9359 193.957 28.3153C193.544 28.6835 193.031 28.968 192.417 29.1689C191.814 29.3809 191.128 29.4869 190.358 29.4869C188.852 29.4869 187.451 29.0645 186.153 28.2198C186.02 28.1331 185.979 27.9587 186.053 27.8185L187.142 25.7715C187.237 25.5922 187.475 25.5497 187.634 25.6762C188.021 25.9843 188.405 26.2224 188.785 26.3904C189.265 26.6024 189.739 26.7085 190.207 26.7085C190.743 26.7085 191.139 26.5857 191.396 26.3402C191.664 26.0947 191.798 25.8158 191.798 25.5033C191.798 25.3136 191.764 25.1518 191.697 25.0179C191.63 24.8729 191.519 24.7446 191.362 24.633C191.206 24.5102 191 24.3986 190.743 24.2982C190.498 24.1978 190.196 24.0862 189.839 23.9635C189.415 23.8296 188.997 23.6845 188.584 23.5283C188.182 23.3609 187.82 23.1433 187.496 22.8755C187.184 22.6077 186.927 22.273 186.726 21.8713C186.536 21.4584 186.441 20.9395 186.441 20.3146C186.441 19.6898 186.542 19.1263 186.743 18.6241C186.955 18.1108 187.245 17.6757 187.613 17.3186C187.993 16.9504 188.45 16.6658 188.986 16.465C189.532 16.2641 190.141 16.1637 190.81 16.1637C191.435 16.1637 192.088 16.253 192.768 16.4315C193.35 16.5746 193.912 16.7789 194.453 17.0443C194.606 17.1196 194.665 17.3065 194.587 17.4587L193.597 19.3998Z" fill="currentColor"/>
<path d="M184.127 18.98C184.127 19.1533 183.986 19.2938 183.813 19.2938H180.54C180.367 19.2938 180.227 19.4343 180.227 19.6077V21.089C180.227 21.2623 180.367 21.4028 180.54 21.4028H183.595C183.768 21.4028 183.909 21.5433 183.909 21.7166V23.8674C183.909 24.0407 183.768 24.1813 183.595 24.1813H180.54C180.367 24.1813 180.227 24.3218 180.227 24.4951V26.0433C180.227 26.2166 180.367 26.3572 180.54 26.3572H183.813C183.986 26.3572 184.127 26.4977 184.127 26.671V28.8218C184.127 28.9951 183.986 29.1356 183.813 29.1356H177.26C177.087 29.1356 176.946 28.9951 176.946 28.8218V16.8292C176.946 16.6559 177.087 16.5154 177.26 16.5154H183.813C183.986 16.5154 184.127 16.6559 184.127 16.8292V18.98Z" fill="currentColor"/>
<path d="M174.871 19.8548C174.871 20.1497 174.481 20.2975 174.252 20.112C173.62 19.5999 172.889 19.3439 172.059 19.3439C171.568 19.3439 171.11 19.4331 170.686 19.6117C170.274 19.7902 169.916 20.0357 169.615 20.3481C169.314 20.6494 169.074 21.0121 168.895 21.4361C168.728 21.8601 168.644 22.3176 168.644 22.8086C168.644 23.3107 168.728 23.7738 168.895 24.1978C169.074 24.6218 169.314 24.99 169.615 25.3025C169.928 25.6149 170.29 25.8604 170.703 26.0389C171.116 26.2175 171.562 26.3067 172.042 26.3067C172.854 26.3067 173.602 26.0393 174.287 25.5045C174.511 25.3294 174.871 25.4768 174.871 25.7613V28.6282C174.871 28.7616 174.787 28.8804 174.661 28.9244L174.536 28.968C174.034 29.1466 173.565 29.2749 173.13 29.353C172.695 29.4423 172.265 29.4869 171.841 29.4869C170.971 29.4869 170.134 29.3251 169.331 29.0015C168.538 28.6668 167.835 28.2037 167.222 27.6123C166.619 27.0097 166.134 26.3012 165.765 25.4866C165.397 24.6609 165.213 23.7626 165.213 22.7918C165.213 21.821 165.392 20.9339 165.749 20.1305C166.117 19.316 166.602 18.6186 167.205 18.0383C167.819 17.4469 168.527 16.9894 169.331 16.6658C170.134 16.3311 170.976 16.1637 171.858 16.1637C172.36 16.1637 172.851 16.2195 173.331 16.3311C173.762 16.4193 174.211 16.5549 174.677 16.738C174.795 16.7843 174.871 16.899 174.871 17.0257V19.8548Z" fill="currentColor"/>
<path d="M163.707 19.8548C163.707 20.1497 163.317 20.2975 163.088 20.112C162.456 19.5999 161.725 19.3439 160.895 19.3439C160.404 19.3439 159.946 19.4331 159.522 19.6117C159.109 19.7902 158.752 20.0357 158.451 20.3481C158.15 20.6494 157.91 21.0121 157.731 21.4361C157.564 21.8601 157.48 22.3176 157.48 22.8086C157.48 23.3107 157.564 23.7738 157.731 24.1978C157.91 24.6218 158.15 24.99 158.451 25.3025C158.764 25.6149 159.126 25.8604 159.539 26.0389C159.952 26.2175 160.398 26.3067 160.878 26.3067C161.69 26.3067 162.438 26.0393 163.123 25.5045C163.347 25.3294 163.707 25.4768 163.707 25.7613V28.6282C163.707 28.7616 163.622 28.8804 163.497 28.9244L163.372 28.968C162.87 29.1466 162.401 29.2749 161.966 29.353C161.531 29.4423 161.101 29.4869 160.677 29.4869C159.807 29.4869 158.97 29.3251 158.167 29.0015C157.374 28.6668 156.671 28.2037 156.058 27.6123C155.455 27.0097 154.97 26.3012 154.601 25.4866C154.233 24.6609 154.049 23.7626 154.049 22.7918C154.049 21.821 154.228 20.9339 154.585 20.1305C154.953 19.316 155.438 18.6186 156.041 18.0383C156.655 17.4469 157.363 16.9894 158.167 16.6658C158.97 16.3311 159.812 16.1637 160.694 16.1637C161.196 16.1637 161.687 16.2195 162.167 16.3311C162.598 16.4193 163.047 16.5549 163.513 16.738C163.631 16.7843 163.707 16.899 163.707 17.0257V19.8548Z" fill="currentColor"/>
<path d="M148.093 24.4491C148.309 24.4491 148.46 24.2355 148.389 24.0314L147.358 21.0926C147.26 20.8126 146.864 20.8126 146.766 21.0926L145.736 24.0314C145.664 24.2355 145.816 24.4491 146.032 24.4491H148.093ZM149.478 27.1548C149.435 27.0281 149.315 26.943 149.181 26.943H144.943C144.809 26.943 144.69 27.0281 144.646 27.1548L144.038 28.9237C143.995 29.0505 143.876 29.1356 143.742 29.1356H140.923C140.703 29.1356 140.551 28.9155 140.629 28.7101L145.194 16.7176C145.241 16.5958 145.357 16.5154 145.488 16.5154H148.637C148.767 16.5154 148.884 16.5958 148.93 16.7176L153.495 28.7101C153.573 28.9155 153.421 29.1356 153.202 29.1356H150.383C150.249 29.1356 150.129 29.0505 150.086 28.9237L149.478 27.1548Z" fill="currentColor"/>
<path d="M133.106 19.3998C133.016 19.5778 132.784 19.6259 132.62 19.5129C132.366 19.3391 132.112 19.2046 131.859 19.1095C131.502 18.9645 131.156 18.8919 130.821 18.8919C130.397 18.8919 130.051 18.9924 129.783 19.1932C129.516 19.3941 129.382 19.6563 129.382 19.9799C129.382 20.2031 129.449 20.3872 129.583 20.5322C129.716 20.6773 129.889 20.8056 130.101 20.9172C130.325 21.0176 130.57 21.1069 130.838 21.185C131.117 21.2631 131.39 21.3468 131.658 21.4361C132.729 21.7931 133.51 22.273 134.001 22.8755C134.503 23.4669 134.755 24.2424 134.755 25.2021C134.755 25.8492 134.643 26.4351 134.42 26.9595C134.208 27.484 133.89 27.9359 133.466 28.3153C133.053 28.6835 132.54 28.968 131.926 29.1689C131.323 29.3809 130.637 29.4869 129.867 29.4869C128.361 29.4869 126.96 29.0645 125.662 28.2198C125.529 28.1331 125.488 27.9587 125.562 27.8185L126.651 25.7715C126.746 25.5922 126.984 25.5497 127.143 25.6762C127.53 25.9843 127.914 26.2224 128.294 26.3904C128.774 26.6024 129.248 26.7085 129.716 26.7085C130.252 26.7085 130.648 26.5857 130.905 26.3402C131.173 26.0947 131.307 25.8158 131.307 25.5033C131.307 25.3136 131.273 25.1518 131.206 25.0179C131.139 24.8729 131.028 24.7446 130.871 24.633C130.715 24.5102 130.509 24.3986 130.252 24.2982C130.007 24.1978 129.705 24.0862 129.348 23.9635C128.924 23.8296 128.506 23.6845 128.093 23.5283C127.691 23.3609 127.329 23.1433 127.005 22.8755C126.693 22.6077 126.436 22.273 126.235 21.8713C126.045 21.4584 125.951 20.9395 125.951 20.3146C125.951 19.6898 126.051 19.1263 126.252 18.6241C126.464 18.1108 126.754 17.6757 127.122 17.3186C127.502 16.9504 127.959 16.6658 128.495 16.465C129.041 16.2641 129.65 16.1637 130.319 16.1637C130.944 16.1637 131.597 16.253 132.277 16.4315C132.859 16.5746 133.421 16.7789 133.962 17.0443C134.115 17.1196 134.174 17.3065 134.096 17.4587L133.106 19.3998Z" fill="currentColor"/>
<path d="M122.144 19.2938C121.97 19.2938 121.83 19.4343 121.83 19.6077V28.8218C121.83 28.9951 121.689 29.1356 121.516 29.1356H118.863C118.69 29.1356 118.549 28.9951 118.549 28.8218V19.6077C118.549 19.4343 118.409 19.2938 118.235 19.2938H116.168C115.995 19.2938 115.854 19.1533 115.854 18.98V16.8292C115.854 16.6559 115.995 16.5154 116.168 16.5154H124.211C124.384 16.5154 124.525 16.6559 124.525 16.8292V18.98C124.525 19.1533 124.384 19.2938 124.211 19.2938H122.144Z" fill="currentColor"/>
<path d="M114.093 16.5154C114.266 16.5154 114.407 16.6559 114.407 16.8292V28.8218C114.407 28.9951 114.266 29.1356 114.093 29.1356H111.44C111.267 29.1356 111.126 28.9951 111.126 28.8218V16.8292C111.126 16.6559 111.267 16.5154 111.44 16.5154H114.093Z" fill="currentColor"/>
<path d="M109.171 18.98C109.171 19.1533 109.03 19.2938 108.857 19.2938H105.535C105.361 19.2938 105.221 19.4343 105.221 19.6077V21.089C105.221 21.2623 105.361 21.4028 105.535 21.4028H108.506C108.679 21.4028 108.819 21.5433 108.819 21.7166V23.8674C108.819 24.0407 108.679 24.1813 108.506 24.1813H105.535C105.361 24.1813 105.221 24.3218 105.221 24.4951V28.8218C105.221 28.9951 105.08 29.1356 104.907 29.1356H102.254C102.081 29.1356 101.94 28.9951 101.94 28.8218V16.8292C101.94 16.6559 102.081 16.5154 102.254 16.5154H108.857C109.03 16.5154 109.171 16.6559 109.171 16.8292V18.98Z" fill="currentColor"/>
<path d="M99.575 18.98C99.575 19.1533 99.4345 19.2938 99.2612 19.2938H95.989C95.8156 19.2938 95.6751 19.4343 95.6751 19.6077V21.089C95.6751 21.2623 95.8156 21.4028 95.989 21.4028H99.0436C99.2169 21.4028 99.3574 21.5433 99.3574 21.7166V23.8674C99.3574 24.0407 99.2169 24.1813 99.0436 24.1813H95.989C95.8156 24.1813 95.6751 24.3218 95.6751 24.4951V26.0433C95.6751 26.2166 95.8156 26.3572 95.989 26.3572H99.2612C99.4345 26.3572 99.575 26.4977 99.575 26.671V28.8218C99.575 28.9951 99.4345 29.1356 99.2612 29.1356H92.7084C92.535 29.1356 92.3945 28.9951 92.3945 28.8218V16.8292C92.3945 16.6559 92.535 16.5154 92.7084 16.5154H99.2612C99.4345 16.5154 99.575 16.6559 99.575 16.8292V18.98Z" fill="currentColor"/>
<path d="M77.4579 29.1356C77.2846 29.1356 77.144 28.9951 77.144 28.8218V16.8292C77.144 16.6559 77.2846 16.5154 77.4579 16.5154H80.272C80.3684 16.5154 80.4594 16.5596 80.5189 16.6354L85.923 23.5175C86.1071 23.7519 86.4837 23.6217 86.4837 23.3237V16.8292C86.4837 16.6559 86.6242 16.5154 86.7975 16.5154H89.4337C89.607 16.5154 89.7475 16.6559 89.7475 16.8292V28.8218C89.7475 28.9951 89.607 29.1356 89.4337 29.1356H86.6363C86.5399 29.1356 86.4489 29.0914 86.3894 29.0156L80.9853 22.1335C80.8012 21.8991 80.4246 22.0293 80.4246 22.3273V28.8218C80.4246 28.9951 80.2841 29.1356 80.1108 29.1356H77.4579Z" fill="currentColor"/>
<path d="M74.7789 18.98C74.7789 19.1533 74.6384 19.2938 74.465 19.2938H71.1928C71.0195 19.2938 70.879 19.4343 70.879 19.6077V21.089C70.879 21.2623 71.0195 21.4028 71.1928 21.4028H74.2474C74.4208 21.4028 74.5613 21.5433 74.5613 21.7166V23.8674C74.5613 24.0407 74.4208 24.1813 74.2474 24.1813H71.1928C71.0195 24.1813 70.879 24.3218 70.879 24.4951V26.0433C70.879 26.2166 71.0195 26.3572 71.1928 26.3572H74.465C74.6384 26.3572 74.7789 26.4977 74.7789 26.671V28.8218C74.7789 28.9951 74.6384 29.1356 74.465 29.1356H67.9122C67.7389 29.1356 67.5984 28.9951 67.5984 28.8218V16.8292C67.5984 16.6559 67.7389 16.5154 67.9122 16.5154H74.465C74.6384 16.5154 74.7789 16.6559 74.7789 16.8292V18.98Z" fill="currentColor"/>
<path d="M59.2901 26.2776C59.2901 26.451 59.4306 26.5915 59.6039 26.5915H60.0098C60.8356 26.5915 61.427 26.4855 61.784 26.2735C62.1411 26.0615 62.3196 25.7211 62.3196 25.2525C62.3196 24.7838 62.1411 24.4435 61.784 24.2315C61.427 24.0195 60.8356 23.9134 60.0098 23.9134H59.6039C59.4306 23.9134 59.2901 24.054 59.2901 24.2273V26.2776ZM59.2901 21.1559C59.2901 21.3292 59.4306 21.4697 59.6039 21.4697H59.8927C60.9192 21.4697 61.4325 21.0625 61.4325 20.2479C61.4325 19.4333 60.9192 19.026 59.8927 19.026H59.6039C59.4306 19.026 59.2901 19.1665 59.2901 19.3399V21.1559ZM56.0095 16.8292C56.0095 16.6559 56.15 16.5154 56.3234 16.5154H60.8969C62.0574 16.5154 62.9389 16.7943 63.5415 17.3523C64.144 17.9102 64.4453 18.7136 64.4453 19.7625C64.4453 20.3985 64.3282 20.9286 64.0938 21.3526C63.9863 21.5516 63.8502 21.7363 63.6856 21.9068C63.4869 22.1126 63.5647 22.5205 63.8308 22.6257C63.9798 22.6846 64.1177 22.7512 64.2445 22.8255C64.5792 23.004 64.847 23.2272 65.0479 23.495C65.2599 23.7628 65.4105 24.0641 65.4998 24.3988C65.5891 24.7336 65.6337 25.0907 65.6337 25.4701C65.6337 26.0615 65.5277 26.5859 65.3157 27.0434C65.1148 27.5009 64.8247 27.8859 64.4453 28.1983C64.0771 28.5107 63.6252 28.7451 63.0896 28.9013C62.554 29.0575 61.9514 29.1356 61.2819 29.1356H56.3234C56.15 29.1356 56.0095 28.9951 56.0095 28.8218V16.8292Z" fill="currentColor"/>
<path d="M44.6358 14.0927C46.2167 13.4436 47.78 11.8708 48.8644 10.5574C49.111 10.2586 49.6862 10.4852 49.6419 10.8701C49.427 12.7363 48.94 15.2326 46.6286 16.8826C45.2045 17.8992 43.2875 18.5354 42.3016 18.7654C42.1067 18.8109 41.9726 18.9959 41.9954 19.1947C42.1537 20.5692 42.2952 23.6492 41.846 27.6436C41.2694 32.77 38.6204 36.3596 36.7736 38.065C36.5101 38.3084 36.1227 38.0335 36.2178 37.6876C36.5774 36.3801 36.9706 34.4764 37.0633 32.8248C37.164 31.0303 37.1718 30.0084 37.1437 29.0601C37.1328 28.694 36.6299 28.566 36.4206 28.8666C35.7659 29.8071 34.7336 31.0463 33.0778 32.4262C31.6316 33.6314 29.1734 34.3986 27.5508 34.6963C27.2334 34.7545 27.0415 34.4032 27.2544 34.1607C28.8401 32.3538 31.0169 30.3362 32.4065 26.7734C33.1113 24.9667 33.4686 22.2171 33.4808 20.4904C33.4823 20.2682 33.2809 20.1034 33.0622 20.1422C31.9818 20.3339 30.8588 20.6053 29.0922 21.6652C27.8058 22.4371 26.867 23.2982 26.1387 24.0757C25.874 24.3583 25.3355 24.0971 25.414 23.718C25.739 22.1472 26.3686 20.1127 28.6937 18.0783C30.5291 16.4723 33.0778 15.6869 36.2662 15.2884C39.4546 14.8898 42.2852 15.058 44.6358 14.0927Z" fill="#c38b4f"/>
<circle cx="36.2661" cy="11.3024" r="3.18843" fill="#c38b4f"/>
<path d="M42.2076 3.73056C43.1943 3.0728 44.3185 3.6667 44.964 4.3385C45.1731 4.55605 45.6232 4.55846 45.8374 4.34602C46.5022 3.68681 47.662 3.11555 48.5845 3.73056C49.7801 4.52767 48.983 6.52043 48.1859 7.7161C47.6131 8.57533 46.3542 9.71328 45.6226 10.3211C45.4908 10.4305 45.3013 10.4305 45.1695 10.3211C44.4379 9.71328 43.179 8.57533 42.6062 7.7161C41.8091 6.52043 41.012 4.52766 42.2076 3.73056Z" fill="#c38b4f"/>
</svg>
