<svg width="96" height="16" viewBox="0 0 96 16" fill="none" xmlns="http://www.w3.org/2000/svg">
<path d="M7.68335 1.53C7.71257 1.47097 7.7577 1.42129 7.81365 1.38655C7.86961 1.35181 7.93416 1.3334 8.00002 1.3334C8.06588 1.3334 8.13043 1.35181 8.18639 1.38655C8.24234 1.42129 8.28747 1.47097 8.31669 1.53L9.85669 4.64933C9.95814 4.85465 10.1079 5.03227 10.2931 5.16697C10.4783 5.30167 10.6934 5.38941 10.92 5.42267L14.364 5.92667C14.4293 5.93612 14.4906 5.96365 14.541 6.00613C14.5914 6.04862 14.629 6.10437 14.6494 6.16707C14.6698 6.22978 14.6722 6.29694 14.6564 6.36096C14.6406 6.42498 14.6072 6.4833 14.56 6.52933L12.0694 8.95467C11.9051 9.11474 11.7822 9.31232 11.7112 9.53042C11.6403 9.74852 11.6234 9.98059 11.662 10.2067L12.25 13.6333C12.2615 13.6986 12.2545 13.7657 12.2297 13.8271C12.2049 13.8885 12.1633 13.9417 12.1097 13.9807C12.0561 14.0196 11.9927 14.0427 11.9266 14.0473C11.8605 14.0519 11.7945 14.0378 11.736 14.0067L8.65735 12.388C8.4545 12.2815 8.22881 12.2258 7.99969 12.2258C7.77057 12.2258 7.54487 12.2815 7.34202 12.388L4.26402 14.0067C4.20557 14.0376 4.13962 14.0515 4.07365 14.0468C4.00769 14.0421 3.94437 14.019 3.89088 13.9801C3.8374 13.9412 3.79591 13.8881 3.77112 13.8268C3.74634 13.7655 3.73926 13.6985 3.75069 13.6333L4.33802 10.2073C4.37682 9.98116 4.36001 9.74893 4.28905 9.5307C4.21808 9.31246 4.09509 9.11477 3.93069 8.95467L1.44002 6.53C1.39242 6.48402 1.35868 6.4256 1.34266 6.36138C1.32664 6.29717 1.32898 6.22975 1.34941 6.16679C1.36983 6.10384 1.40753 6.04789 1.4582 6.00532C1.50888 5.96275 1.57049 5.93527 1.63602 5.926L5.07935 5.42267C5.30619 5.38967 5.52161 5.30204 5.70708 5.16733C5.89254 5.03261 6.04249 4.85485 6.14402 4.64933L7.68335 1.53Z" fill="#C69653" stroke="#C69653" stroke-width="1.33333" stroke-linecap="round" stroke-linejoin="round"/>
<path d="M27.6834 1.53C27.7126 1.47097 27.7577 1.42129 27.8137 1.38655C27.8696 1.35181 27.9342 1.3334 28 1.3334C28.0659 1.3334 28.1304 1.35181 28.1864 1.38655C28.2423 1.42129 28.2875 1.47097 28.3167 1.53L29.8567 4.64933C29.9581 4.85465 30.1079 5.03227 30.2931 5.16697C30.4783 5.30167 30.6934 5.38941 30.92 5.42267L34.364 5.92667C34.4293 5.93612 34.4906 5.96365 34.541 6.00613C34.5914 6.04862 34.629 6.10437 34.6494 6.16707C34.6698 6.22978 34.6722 6.29694 34.6564 6.36096C34.6406 6.42498 34.6072 6.4833 34.56 6.52933L32.0694 8.95467C31.9051 9.11474 31.7822 9.31232 31.7112 9.53042C31.6403 9.74852 31.6234 9.98059 31.662 10.2067L32.25 13.6333C32.2615 13.6986 32.2545 13.7657 32.2297 13.8271C32.2049 13.8885 32.1633 13.9417 32.1097 13.9807C32.0561 14.0196 31.9927 14.0427 31.9266 14.0473C31.8605 14.0519 31.7945 14.0378 31.736 14.0067L28.6574 12.388C28.4545 12.2815 28.2288 12.2258 27.9997 12.2258C27.7706 12.2258 27.5449 12.2815 27.342 12.388L24.264 14.0067C24.2056 14.0376 24.1396 14.0515 24.0737 14.0468C24.0077 14.0421 23.9444 14.019 23.8909 13.9801C23.8374 13.9412 23.7959 13.8881 23.7711 13.8268C23.7463 13.7655 23.7393 13.6985 23.7507 13.6333L24.338 10.2073C24.3768 9.98116 24.36 9.74893 24.289 9.5307C24.2181 9.31246 24.0951 9.11477 23.9307 8.95467L21.44 6.53C21.3924 6.48402 21.3587 6.4256 21.3427 6.36138C21.3266 6.29717 21.329 6.22975 21.3494 6.16679C21.3698 6.10384 21.4075 6.04789 21.4582 6.00532C21.5089 5.96275 21.5705 5.93527 21.636 5.926L25.0794 5.42267C25.3062 5.38967 25.5216 5.30204 25.7071 5.16733C25.8925 5.03261 26.0425 4.85485 26.144 4.64933L27.6834 1.53Z" fill="#C69653" stroke="#C69653" stroke-width="1.33333" stroke-linecap="round" stroke-linejoin="round"/>
<path d="M47.6834 1.53C47.7126 1.47097 47.7577 1.42129 47.8137 1.38655C47.8696 1.35181 47.9342 1.3334 48 1.3334C48.0659 1.3334 48.1304 1.35181 48.1864 1.38655C48.2423 1.42129 48.2875 1.47097 48.3167 1.53L49.8567 4.64933C49.9581 4.85465 50.1079 5.03227 50.2931 5.16697C50.4783 5.30167 50.6934 5.38941 50.92 5.42267L54.364 5.92667C54.4293 5.93612 54.4906 5.96365 54.541 6.00613C54.5914 6.04862 54.629 6.10437 54.6494 6.16707C54.6698 6.22978 54.6722 6.29694 54.6564 6.36096C54.6406 6.42498 54.6072 6.4833 54.56 6.52933L52.0694 8.95467C51.9051 9.11474 51.7822 9.31232 51.7112 9.53042C51.6403 9.74852 51.6234 9.98059 51.662 10.2067L52.25 13.6333C52.2615 13.6986 52.2545 13.7657 52.2297 13.8271C52.2049 13.8885 52.1633 13.9417 52.1097 13.9807C52.0561 14.0196 51.9927 14.0427 51.9266 14.0473C51.8605 14.0519 51.7945 14.0378 51.736 14.0067L48.6574 12.388C48.4545 12.2815 48.2288 12.2258 47.9997 12.2258C47.7706 12.2258 47.5449 12.2815 47.342 12.388L44.264 14.0067C44.2056 14.0376 44.1396 14.0515 44.0737 14.0468C44.0077 14.0421 43.9444 14.019 43.8909 13.9801C43.8374 13.9412 43.7959 13.8881 43.7711 13.8268C43.7463 13.7655 43.7393 13.6985 43.7507 13.6333L44.338 10.2073C44.3768 9.98116 44.36 9.74893 44.289 9.5307C44.2181 9.31246 44.0951 9.11477 43.9307 8.95467L41.44 6.53C41.3924 6.48402 41.3587 6.4256 41.3427 6.36138C41.3266 6.29717 41.329 6.22975 41.3494 6.16679C41.3698 6.10384 41.4075 6.04789 41.4582 6.00532C41.5089 5.96275 41.5705 5.93527 41.636 5.926L45.0794 5.42267C45.3062 5.38967 45.5216 5.30204 45.7071 5.16733C45.8925 5.03261 46.0425 4.85485 46.144 4.64933L47.6834 1.53Z" fill="#C69653" stroke="#C69653" stroke-width="1.33333" stroke-linecap="round" stroke-linejoin="round"/>
<path d="M67.6834 1.53C67.7126 1.47097 67.7577 1.42129 67.8137 1.38655C67.8696 1.35181 67.9342 1.3334 68 1.3334C68.0659 1.3334 68.1304 1.35181 68.1864 1.38655C68.2423 1.42129 68.2875 1.47097 68.3167 1.53L69.8567 4.64933C69.9581 4.85465 70.1079 5.03227 70.2931 5.16697C70.4783 5.30167 70.6934 5.38941 70.92 5.42267L74.364 5.92667C74.4293 5.93612 74.4906 5.96365 74.541 6.00613C74.5914 6.04862 74.629 6.10437 74.6494 6.16707C74.6698 6.22978 74.6722 6.29694 74.6564 6.36096C74.6406 6.42498 74.6072 6.4833 74.56 6.52933L72.0694 8.95467C71.9051 9.11474 71.7822 9.31232 71.7112 9.53042C71.6403 9.74852 71.6234 9.98059 71.662 10.2067L72.25 13.6333C72.2615 13.6986 72.2545 13.7657 72.2297 13.8271C72.2049 13.8885 72.1633 13.9417 72.1097 13.9807C72.0561 14.0196 71.9927 14.0427 71.9266 14.0473C71.8605 14.0519 71.7945 14.0378 71.736 14.0067L68.6574 12.388C68.4545 12.2815 68.2288 12.2258 67.9997 12.2258C67.7706 12.2258 67.5449 12.2815 67.342 12.388L64.264 14.0067C64.2056 14.0376 64.1396 14.0515 64.0737 14.0468C64.0077 14.0421 63.9444 14.019 63.8909 13.9801C63.8374 13.9412 63.7959 13.8881 63.7711 13.8268C63.7463 13.7655 63.7393 13.6985 63.7507 13.6333L64.338 10.2073C64.3768 9.98116 64.36 9.74893 64.289 9.5307C64.2181 9.31246 64.0951 9.11477 63.9307 8.95467L61.44 6.53C61.3924 6.48402 61.3587 6.4256 61.3427 6.36138C61.3266 6.29717 61.329 6.22975 61.3494 6.16679C61.3698 6.10384 61.4075 6.04789 61.4582 6.00532C61.5089 5.96275 61.5705 5.93527 61.636 5.926L65.0794 5.42267C65.3062 5.38967 65.5216 5.30204 65.7071 5.16733C65.8925 5.03261 66.0425 4.85485 66.144 4.64933L67.6834 1.53Z" fill="#C69653" stroke="#C69653" stroke-width="1.33333" stroke-linecap="round" stroke-linejoin="round"/>
<path d="M87.6834 1.53C87.7126 1.47097 87.7577 1.42129 87.8137 1.38655C87.8696 1.35181 87.9342 1.3334 88 1.3334C88.0659 1.3334 88.1304 1.35181 88.1864 1.38655C88.2423 1.42129 88.2875 1.47097 88.3167 1.53L89.8567 4.64933C89.9581 4.85465 90.1079 5.03227 90.2931 5.16697C90.4783 5.30167 90.6934 5.38941 90.92 5.42267L94.364 5.92667C94.4293 5.93612 94.4906 5.96365 94.541 6.00613C94.5914 6.04862 94.629 6.10437 94.6494 6.16707C94.6698 6.22978 94.6722 6.29694 94.6564 6.36096C94.6406 6.42498 94.6072 6.4833 94.56 6.52933L92.0694 8.95467C91.9051 9.11474 91.7822 9.31232 91.7112 9.53042C91.6403 9.74852 91.6234 9.98059 91.662 10.2067L92.25 13.6333C92.2615 13.6986 92.2545 13.7657 92.2297 13.8271C92.2049 13.8885 92.1633 13.9417 92.1097 13.9807C92.0561 14.0196 91.9927 14.0427 91.9266 14.0473C91.8605 14.0519 91.7945 14.0378 91.736 14.0067L88.6574 12.388C88.4545 12.2815 88.2288 12.2258 87.9997 12.2258C87.7706 12.2258 87.5449 12.2815 87.342 12.388L84.264 14.0067C84.2056 14.0376 84.1396 14.0515 84.0737 14.0468C84.0077 14.0421 83.9444 14.019 83.8909 13.9801C83.8374 13.9412 83.7959 13.8881 83.7711 13.8268C83.7463 13.7655 83.7393 13.6985 83.7507 13.6333L84.338 10.2073C84.3768 9.98116 84.36 9.74893 84.289 9.5307C84.2181 9.31246 84.0951 9.11477 83.9307 8.95467L81.44 6.53C81.3924 6.48402 81.3587 6.4256 81.3427 6.36138C81.3266 6.29717 81.329 6.22975 81.3494 6.16679C81.3698 6.10384 81.4075 6.04789 81.4582 6.00532C81.5089 5.96275 81.5705 5.93527 81.636 5.926L85.0794 5.42267C85.3062 5.38967 85.5216 5.30204 85.7071 5.16733C85.8925 5.03261 86.0425 4.85485 86.144 4.64933L87.6834 1.53Z" fill="#C69653" stroke="#C69653" stroke-width="1.33333" stroke-linecap="round" stroke-linejoin="round"/>
</svg>
